solid x_axis_level1.stl
  facet normal 0 -1 0
    outer loop
      vertex 92.19 104.1 0
      vertex 98.8074 104.1 0
      vertex 98.8074 104.1 70
    endloop
  endfacet
  facet normal 0 -1 0
    outer loop
      vertex 92.19 104.1 0
      vertex 98.8074 104.1 70
      vertex 92.19 104.1 70
    endloop
  endfacet
  facet normal 0 0 -1
    outer loop
      vertex 105.455 108.764 0
      vertex 106.949 107.397 0
      vertex 101.526 103.069 0
    endloop
  endfacet
  facet normal 0 0 -1
    outer loop
      vertex 90.7195 107.456 0
      vertex 90.2229 105.739 0
      vertex 90.4477 107.082 0
    endloop
  endfacet
  facet normal 0 0 -1
    outer loop
      vertex 105.455 108.764 0
      vertex 101.526 103.069 0
      vertex 100.713 103.63 0
    endloop
  endfacet
  facet normal 0 0 -1
    outer loop
      vertex 92.19 95.9 0
      vertex 92.2234 91.188 0
      vertex 90.7195 92.5444 0
    endloop
  endfacet
  facet normal 0 0 -1
    outer loop
      vertex 92.19 95.9 0
      vertex 93.9505 90.1303 0
      vertex 92.2234 91.188 0
    endloop
  endfacet
  facet normal 0 0 -1
    outer loop
      vertex 92.19 95.9 0
      vertex 90.7195 92.5444 0
      vertex 90.4477 92.9181 0
    endloop
  endfacet
  facet normal 0 0 -1
    outer loop
      vertex 92.19 95.9 0
      vertex 98.8074 95.9 0
      vertex 93.9505 90.1303 0
    endloop
  endfacet
  facet normal 0 0 -1
    outer loop
      vertex 90.2229 94.261 0
      vertex 90.4477 92.9181 0
      vertex 90.2688 93.3442 0
    endloop
  endfacet
  facet normal 0 0 -1
    outer loop
      vertex 90.2229 94.261 0
      vertex 90.2688 93.3442 0
      vertex 90.1926 93.7999 0
    endloop
  endfacet
  facet normal 0 0 -1
    outer loop
      vertex 91.7311 95.8466 0
      vertex 92.19 95.9 0
      vertex 90.4477 92.9181 0
    endloop
  endfacet
  facet normal 0 0 -1
    outer loop
      vertex 91.7311 95.8466 0
      vertex 90.4477 92.9181 0
      vertex 90.2229 94.261 0
    endloop
  endfacet
  facet normal 0 0 -1
    outer loop
      vertex 90.5913 95.1017 0
      vertex 90.2229 94.261 0
      vertex 90.3582 94.7028 0
    endloop
  endfacet
  facet normal 0 0 -1
    outer loop
      vertex 90.9098 95.4365 0
      vertex 91.7311 95.8466 0
      vertex 90.2229 94.261 0
    endloop
  endfacet
  facet normal 0 0 -1
    outer loop
      vertex 90.9098 95.4365 0
      vertex 90.2229 94.261 0
      vertex 90.5913 95.1017 0
    endloop
  endfacet
  facet normal 0 0 -1
    outer loop
      vertex 90.9098 95.4365 0
      vertex 91.2966 95.6893 0
      vertex 91.7311 95.8466 0
    endloop
  endfacet
  facet normal 0 0 -1
    outer loop
      vertex 103.736 109.834 0
      vertex 105.455 108.764 0
      vertex 100.713 103.63 0
    endloop
  endfacet
  facet normal 0 0 -1
    outer loop
      vertex 101.526 96.9311 0
      vertex 106.949 92.6032 0
      vertex 105.455 91.2359 0
    endloop
  endfacet
  facet normal 0 0 -1
    outer loop
      vertex 101.849 110.571 0
      vertex 100.713 103.63 0
      vertex 99.7886 103.981 0
    endloop
  endfacet
  facet normal 0 0 -1
    outer loop
      vertex 101.849 110.571 0
      vertex 103.736 109.834 0
      vertex 100.713 103.63 0
    endloop
  endfacet
  facet normal 0 0 -1
    outer loop
      vertex 99.8597 110.95 0
      vertex 99.7886 103.981 0
      vertex 98.8074 104.1 0
    endloop
  endfacet
  facet normal 0 0 -1
    outer loop
      vertex 102.182 97.6709 0
      vertex 108.167 94.2212 0
      vertex 106.949 92.6032 0
    endloop
  endfacet
  facet normal 0 0 -1
    outer loop
      vertex 99.8597 110.95 0
      vertex 101.849 110.571 0
      vertex 99.7886 103.981 0
    endloop
  endfacet
  facet normal 0 0 -1
    outer loop
      vertex 102.182 97.6709 0
      vertex 106.949 92.6032 0
      vertex 101.526 96.9311 0
    endloop
  endfacet
  facet normal 0 0 -1
    outer loop
      vertex 100.713 96.3696 0
      vertex 103.736 90.1658 0
      vertex 101.849 89.4289 0
    endloop
  endfacet
  facet normal 0 0 -1
    outer loop
      vertex 100.713 96.3696 0
      vertex 105.455 91.2359 0
      vertex 103.736 90.1658 0
    endloop
  endfacet
  facet normal 0 0 -1
    outer loop
      vertex 100.713 96.3696 0
      vertex 101.526 96.9311 0
      vertex 105.455 91.2359 0
    endloop
  endfacet
  facet normal 0 0 -1
    outer loop
      vertex 102.641 98.5461 0
      vertex 109.068 96.0351 0
      vertex 108.167 94.2212 0
    endloop
  endfacet
  facet normal 0 0 -1
    outer loop
      vertex 102.641 98.5461 0
      vertex 109.621 97.9834 0
      vertex 109.068 96.0351 0
    endloop
  endfacet
  facet normal 0 0 -1
    outer loop
      vertex 102.641 98.5461 0
      vertex 108.167 94.2212 0
      vertex 102.182 97.6709 0
    endloop
  endfacet
  facet normal 0 0 -1
    outer loop
      vertex 99.7886 96.0191 0
      vertex 101.849 89.4289 0
      vertex 99.8597 89.0504 0
    endloop
  endfacet
  facet normal 0 0 -1
    outer loop
      vertex 97.8345 110.957 0
      vertex 99.8597 110.95 0
      vertex 98.8074 104.1 0
    endloop
  endfacet
  facet normal 0 0 -1
    outer loop
      vertex 99.7886 96.0191 0
      vertex 100.713 96.3696 0
      vertex 101.849 89.4289 0
    endloop
  endfacet
  facet normal 0 0 -1
    outer loop
      vertex 102.878 99.5058 0
      vertex 109.807 100 0
      vertex 109.621 97.9834 0
    endloop
  endfacet
  facet normal 0 0 -1
    outer loop
      vertex 102.878 99.5058 0
      vertex 109.621 97.9834 0
      vertex 102.641 98.5461 0
    endloop
  endfacet
  facet normal 0 0 -1
    outer loop
      vertex 98.8074 95.9 0
      vertex 95.8422 89.4072 0
      vertex 93.9505 90.1303 0
    endloop
  endfacet
  facet normal 0 0 -1
    outer loop
      vertex 90.5913 104.898 0
      vertex 91.7311 104.153 0
      vertex 91.2966 104.311 0
    endloop
  endfacet
  facet normal 0 0 -1
    outer loop
      vertex 98.8074 95.9 0
      vertex 97.8345 89.0431 0
      vertex 95.8422 89.4072 0
    endloop
  endfacet
  facet normal 0 0 -1
    outer loop
      vertex 90.5913 104.898 0
      vertex 91.2966 104.311 0
      vertex 90.9098 104.563 0
    endloop
  endfacet
  facet normal 0 0 -1
    outer loop
      vertex 98.8074 95.9 0
      vertex 99.8597 89.0504 0
      vertex 97.8345 89.0431 0
    endloop
  endfacet
  facet normal 0 0 -1
    outer loop
      vertex 98.8074 95.9 0
      vertex 99.7886 96.0191 0
      vertex 99.8597 89.0504 0
    endloop
  endfacet
  facet normal 0 0 -1
    outer loop
      vertex 95.8422 110.593 0
      vertex 97.8345 110.957 0
      vertex 98.8074 104.1 0
    endloop
  endfacet
  facet normal 0 0 -1
    outer loop
      vertex 102.878 100.494 0
      vertex 109.621 102.017 0
      vertex 109.807 100 0
    endloop
  endfacet
  facet normal 0 0 -1
    outer loop
      vertex 102.878 100.494 0
      vertex 109.807 100 0
      vertex 102.878 99.5058 0
    endloop
  endfacet
  facet normal 0 0 -1
    outer loop
      vertex 102.641 101.454 0
      vertex 109.068 103.965 0
      vertex 109.621 102.017 0
    endloop
  endfacet
  facet normal 0 0 -1
    outer loop
      vertex 102.641 101.454 0
      vertex 108.167 105.779 0
      vertex 109.068 103.965 0
    endloop
  endfacet
  facet normal 0 0 -1
    outer loop
      vertex 102.641 101.454 0
      vertex 109.621 102.017 0
      vertex 102.878 100.494 0
    endloop
  endfacet
  facet normal 0 0 -1
    outer loop
      vertex 90.2229 105.739 0
      vertex 92.19 104.1 0
      vertex 91.7311 104.153 0
    endloop
  endfacet
  facet normal 0 0 -1
    outer loop
      vertex 90.2229 105.739 0
      vertex 90.5913 104.898 0
      vertex 90.3582 105.297 0
    endloop
  endfacet
  facet normal 0 0 -1
    outer loop
      vertex 90.2229 105.739 0
      vertex 91.7311 104.153 0
      vertex 90.5913 104.898 0
    endloop
  endfacet
  facet normal 0 0 -1
    outer loop
      vertex 102.182 102.329 0
      vertex 108.167 105.779 0
      vertex 102.641 101.454 0
    endloop
  endfacet
  facet normal 0 0 -1
    outer loop
      vertex 93.9505 109.87 0
      vertex 98.8074 104.1 0
      vertex 92.19 104.1 0
    endloop
  endfacet
  facet normal 0 0 -1
    outer loop
      vertex 93.9505 109.87 0
      vertex 95.8422 110.593 0
      vertex 98.8074 104.1 0
    endloop
  endfacet
  facet normal 0 0 -1
    outer loop
      vertex 106.949 107.397 0
      vertex 108.167 105.779 0
      vertex 102.182 102.329 0
    endloop
  endfacet
  facet normal 0 0 -1
    outer loop
      vertex 101.526 103.069 0
      vertex 106.949 107.397 0
      vertex 102.182 102.329 0
    endloop
  endfacet
  facet normal 0 0 -1
    outer loop
      vertex 92.2234 108.812 0
      vertex 93.9505 109.87 0
      vertex 92.19 104.1 0
    endloop
  endfacet
  facet normal 0 0 -1
    outer loop
      vertex 90.4477 107.082 0
      vertex 90.2229 105.739 0
      vertex 90.1926 106.2 0
    endloop
  endfacet
  facet normal 0 0 -1
    outer loop
      vertex 90.4477 107.082 0
      vertex 90.1926 106.2 0
      vertex 90.2688 106.656 0
    endloop
  endfacet
  facet normal 0 0 -1
    outer loop
      vertex 90.7195 107.456 0
      vertex 92.19 104.1 0
      vertex 90.2229 105.739 0
    endloop
  endfacet
  facet normal 0 0 -1
    outer loop
      vertex 90.7195 107.456 0
      vertex 92.2234 108.812 0
      vertex 92.19 104.1 0
    endloop
  endfacet
  facet normal -0.115518 -0.993305 0
    outer loop
      vertex 92.19 104.1 0
      vertex 92.19 104.1 70
      vertex 91.7311 104.153 0
    endloop
  endfacet
  facet normal -0.115518 -0.993305 0
    outer loop
      vertex 92.19 104.1 70
      vertex 91.7311 104.153 70
      vertex 91.7311 104.153 0
    endloop
  endfacet
  facet normal -0.340388 -0.940285 0
    outer loop
      vertex 91.7311 104.153 0
      vertex 91.2966 104.311 70
      vertex 91.2966 104.311 0
    endloop
  endfacet
  facet normal -0.54709 -0.837074 0
    outer loop
      vertex 91.2966 104.311 0
      vertex 91.2966 104.311 70
      vertex 90.9098 104.563 0
    endloop
  endfacet
  facet normal -0.340388 -0.940285 0
    outer loop
      vertex 91.7311 104.153 70
      vertex 91.2966 104.311 70
      vertex 91.7311 104.153 0
    endloop
  endfacet
  facet normal -0.54709 -0.837074 0
    outer loop
      vertex 91.2966 104.311 70
      vertex 90.9098 104.563 70
      vertex 90.9098 104.563 0
    endloop
  endfacet
  facet normal -0.724588 -0.689183 0
    outer loop
      vertex 90.9098 104.563 0
      vertex 90.5913 104.898 70
      vertex 90.5913 104.898 0
    endloop
  endfacet
  facet normal -0.724588 -0.689183 0
    outer loop
      vertex 90.9098 104.563 70
      vertex 90.5913 104.898 70
      vertex 90.9098 104.563 0
    endloop
  endfacet
  facet normal -0.86341 -0.504503 0
    outer loop
      vertex 90.5913 104.898 0
      vertex 90.3582 105.297 70
      vertex 90.3582 105.297 0
    endloop
  endfacet
  facet normal -0.86341 -0.504503 0
    outer loop
      vertex 90.5913 104.898 70
      vertex 90.3582 105.297 70
      vertex 90.5913 104.898 0
    endloop
  endfacet
  facet normal -0.956145 -0.292895 0
    outer loop
      vertex 90.3582 105.297 0
      vertex 90.2229 105.739 70
      vertex 90.2229 105.739 0
    endloop
  endfacet
  facet normal -0.956145 -0.292895 0
    outer loop
      vertex 90.3582 105.297 70
      vertex 90.2229 105.739 70
      vertex 90.3582 105.297 0
    endloop
  endfacet
  facet normal -0.997843 -0.0656528 0
    outer loop
      vertex 90.2229 105.739 0
      vertex 90.1926 106.2 70
      vertex 90.1926 106.2 0
    endloop
  endfacet
  facet normal -0.997843 -0.0656528 0
    outer loop
      vertex 90.2229 105.739 70
      vertex 90.1926 106.2 70
      vertex 90.2229 105.739 0
    endloop
  endfacet
  facet normal -0.986278 0.165094 0
    outer loop
      vertex 90.1926 106.2 0
      vertex 90.2688 106.656 70
      vertex 90.2688 106.656 0
    endloop
  endfacet
  facet normal -0.986278 0.165094 0
    outer loop
      vertex 90.1926 106.2 70
      vertex 90.2688 106.656 70
      vertex 90.1926 106.2 0
    endloop
  endfacet
  facet normal -0.922068 0.387028 0
    outer loop
      vertex 90.2688 106.656 0
      vertex 90.4477 107.082 70
      vertex 90.4477 107.082 0
    endloop
  endfacet
  facet normal -0.922068 0.387028 0
    outer loop
      vertex 90.2688 106.656 70
      vertex 90.4477 107.082 70
      vertex 90.2688 106.656 0
    endloop
  endfacet
  facet normal -0.80864 0.588304 0
    outer loop
      vertex 90.4477 107.082 0
      vertex 90.7195 107.456 70
      vertex 90.7195 107.456 0
    endloop
  endfacet
  facet normal -0.80864 0.588304 0
    outer loop
      vertex 90.4477 107.082 70
      vertex 90.7195 107.456 70
      vertex 90.4477 107.082 0
    endloop
  endfacet
  facet normal -0.120537 0.992709 0
    outer loop
      vertex 99.7886 96.0191 0
      vertex 98.8074 95.9 0
      vertex 98.8074 95.9 70
    endloop
  endfacet
  facet normal -0.120537 0.992709 0
    outer loop
      vertex 99.7886 96.0191 0
      vertex 98.8074 95.9 70
      vertex 99.7886 96.0191 70
    endloop
  endfacet
  facet normal -0.354605 0.935016 0
    outer loop
      vertex 100.713 96.3696 0
      vertex 99.7886 96.0191 70
      vertex 100.713 96.3696 70
    endloop
  endfacet
  facet normal -0.354605 0.935016 0
    outer loop
      vertex 100.713 96.3696 0
      vertex 99.7886 96.0191 0
      vertex 99.7886 96.0191 70
    endloop
  endfacet
  facet normal -0.568065 0.822984 0
    outer loop
      vertex 101.526 96.9311 0
      vertex 100.713 96.3696 70
      vertex 101.526 96.9311 70
    endloop
  endfacet
  facet normal -0.568065 0.822984 0
    outer loop
      vertex 101.526 96.9311 0
      vertex 100.713 96.3696 0
      vertex 100.713 96.3696 70
    endloop
  endfacet
  facet normal -0.748511 0.663123 0
    outer loop
      vertex 102.182 97.6709 0
      vertex 101.526 96.9311 70
      vertex 102.182 97.6709 70
    endloop
  endfacet
  facet normal -0.748511 0.663123 0
    outer loop
      vertex 102.182 97.6709 0
      vertex 101.526 96.9311 0
      vertex 101.526 96.9311 70
    endloop
  endfacet
  facet normal -0.885456 0.464723 0
    outer loop
      vertex 102.641 98.5461 0
      vertex 102.182 97.6709 70
      vertex 102.641 98.5461 70
    endloop
  endfacet
  facet normal -0.885456 0.464723 0
    outer loop
      vertex 102.641 98.5461 0
      vertex 102.182 97.6709 0
      vertex 102.182 97.6709 70
    endloop
  endfacet
  facet normal -0.970942 0.239316 0
    outer loop
      vertex 102.878 99.5058 0
      vertex 102.641 98.5461 70
      vertex 102.878 99.5058 70
    endloop
  endfacet
  facet normal -0.970942 0.239316 0
    outer loop
      vertex 102.878 99.5058 0
      vertex 102.641 98.5461 0
      vertex 102.641 98.5461 70
    endloop
  endfacet
  facet normal -1 0 0
    outer loop
      vertex 102.878 100.494 0
      vertex 102.878 99.5058 70
      vertex 102.878 100.494 70
    endloop
  endfacet
  facet normal -1 0 0
    outer loop
      vertex 102.878 100.494 0
      vertex 102.878 99.5058 0
      vertex 102.878 99.5058 70
    endloop
  endfacet
  facet normal -0.970942 -0.239316 0
    outer loop
      vertex 102.641 101.454 0
      vertex 102.878 100.494 70
      vertex 102.641 101.454 70
    endloop
  endfacet
  facet normal -0.970942 -0.239316 0
    outer loop
      vertex 102.641 101.454 0
      vertex 102.878 100.494 0
      vertex 102.878 100.494 70
    endloop
  endfacet
  facet normal -0.885456 -0.464723 0
    outer loop
      vertex 102.182 102.329 0
      vertex 102.641 101.454 70
      vertex 102.182 102.329 70
    endloop
  endfacet
  facet normal -0.885456 -0.464723 0
    outer loop
      vertex 102.182 102.329 0
      vertex 102.641 101.454 0
      vertex 102.641 101.454 70
    endloop
  endfacet
  facet normal -0.748511 -0.663123 0
    outer loop
      vertex 101.526 103.069 0
      vertex 102.182 102.329 70
      vertex 101.526 103.069 70
    endloop
  endfacet
  facet normal -0.748511 -0.663123 0
    outer loop
      vertex 101.526 103.069 0
      vertex 102.182 102.329 0
      vertex 102.182 102.329 70
    endloop
  endfacet
  facet normal -0.568065 -0.822984 0
    outer loop
      vertex 100.713 103.63 0
      vertex 101.526 103.069 70
      vertex 100.713 103.63 70
    endloop
  endfacet
  facet normal -0.568065 -0.822984 0
    outer loop
      vertex 100.713 103.63 0
      vertex 101.526 103.069 0
      vertex 101.526 103.069 70
    endloop
  endfacet
  facet normal -0.354605 -0.935016 0
    outer loop
      vertex 99.7886 103.981 0
      vertex 100.713 103.63 70
      vertex 99.7886 103.981 70
    endloop
  endfacet
  facet normal -0.120537 -0.992709 0
    outer loop
      vertex 99.7886 103.981 0
      vertex 99.7886 103.981 70
      vertex 98.8074 104.1 70
    endloop
  endfacet
  facet normal -0.354605 -0.935016 0
    outer loop
      vertex 99.7886 103.981 0
      vertex 100.713 103.63 0
      vertex 100.713 103.63 70
    endloop
  endfacet
  facet normal -0.120537 -0.992709 0
    outer loop
      vertex 98.8074 104.1 0
      vertex 99.7886 103.981 0
      vertex 98.8074 104.1 70
    endloop
  endfacet
  facet normal 0 0 1
    outer loop
      vertex 90.2229 105.739 70
      vertex 90.7195 107.456 70
      vertex 90.4477 107.082 70
    endloop
  endfacet
  facet normal 0 0 1
    outer loop
      vertex 106.949 107.397 70
      vertex 105.455 108.764 70
      vertex 101.526 103.069 70
    endloop
  endfacet
  facet normal 0 0 1
    outer loop
      vertex 101.526 103.069 70
      vertex 105.455 108.764 70
      vertex 100.713 103.63 70
    endloop
  endfacet
  facet normal 0 0 1
    outer loop
      vertex 92.2234 91.188 70
      vertex 92.19 95.9 70
      vertex 90.7195 92.5444 70
    endloop
  endfacet
  facet normal 0 0 1
    outer loop
      vertex 93.9505 90.1303 70
      vertex 92.19 95.9 70
      vertex 92.2234 91.188 70
    endloop
  endfacet
  facet normal 0 0 1
    outer loop
      vertex 90.7195 92.5444 70
      vertex 92.19 95.9 70
      vertex 90.4477 92.9181 70
    endloop
  endfacet
  facet normal 0 0 1
    outer loop
      vertex 98.8074 95.9 70
      vertex 92.19 95.9 70
      vertex 93.9505 90.1303 70
    endloop
  endfacet
  facet normal 0 0 1
    outer loop
      vertex 90.4477 92.9181 70
      vertex 90.2229 94.261 70
      vertex 90.2688 93.3442 70
    endloop
  endfacet
  facet normal 0 0 1
    outer loop
      vertex 90.2688 93.3442 70
      vertex 90.2229 94.261 70
      vertex 90.1926 93.7999 70
    endloop
  endfacet
  facet normal 0 0 1
    outer loop
      vertex 92.19 95.9 70
      vertex 91.7311 95.8466 70
      vertex 90.4477 92.9181 70
    endloop
  endfacet
  facet normal 0 0 1
    outer loop
      vertex 90.4477 92.9181 70
      vertex 91.7311 95.8466 70
      vertex 90.2229 94.261 70
    endloop
  endfacet
  facet normal 0 0 1
    outer loop
      vertex 90.2229 94.261 70
      vertex 90.5913 95.1017 70
      vertex 90.3582 94.7028 70
    endloop
  endfacet
  facet normal 0 0 1
    outer loop
      vertex 91.7311 95.8466 70
      vertex 90.9098 95.4365 70
      vertex 90.2229 94.261 70
    endloop
  endfacet
  facet normal 0 0 1
    outer loop
      vertex 90.2229 94.261 70
      vertex 90.9098 95.4365 70
      vertex 90.5913 95.1017 70
    endloop
  endfacet
  facet normal 0 0 1
    outer loop
      vertex 91.2966 95.6893 70
      vertex 90.9098 95.4365 70
      vertex 91.7311 95.8466 70
    endloop
  endfacet
  facet normal 0 0 1
    outer loop
      vertex 105.455 108.764 70
      vertex 103.736 109.834 70
      vertex 100.713 103.63 70
    endloop
  endfacet
  facet normal 0 0 1
    outer loop
      vertex 106.949 92.6032 70
      vertex 101.526 96.9311 70
      vertex 105.455 91.2359 70
    endloop
  endfacet
  facet normal 0 0 1
    outer loop
      vertex 100.713 103.63 70
      vertex 101.849 110.571 70
      vertex 99.7886 103.981 70
    endloop
  endfacet
  facet normal 0 0 1
    outer loop
      vertex 103.736 109.834 70
      vertex 101.849 110.571 70
      vertex 100.713 103.63 70
    endloop
  endfacet
  facet normal 0 0 1
    outer loop
      vertex 99.7886 103.981 70
      vertex 99.8597 110.95 70
      vertex 98.8074 104.1 70
    endloop
  endfacet
  facet normal 0 0 1
    outer loop
      vertex 108.167 94.2212 70
      vertex 102.182 97.6709 70
      vertex 106.949 92.6032 70
    endloop
  endfacet
  facet normal 0 0 1
    outer loop
      vertex 101.849 110.571 70
      vertex 99.8597 110.95 70
      vertex 99.7886 103.981 70
    endloop
  endfacet
  facet normal 0 0 1
    outer loop
      vertex 106.949 92.6032 70
      vertex 102.182 97.6709 70
      vertex 101.526 96.9311 70
    endloop
  endfacet
  facet normal 0 0 1
    outer loop
      vertex 103.736 90.1658 70
      vertex 100.713 96.3696 70
      vertex 101.849 89.4289 70
    endloop
  endfacet
  facet normal 0 0 1
    outer loop
      vertex 105.455 91.2359 70
      vertex 100.713 96.3696 70
      vertex 103.736 90.1658 70
    endloop
  endfacet
  facet normal 0 0 1
    outer loop
      vertex 101.526 96.9311 70
      vertex 100.713 96.3696 70
      vertex 105.455 91.2359 70
    endloop
  endfacet
  facet normal 0 0 1
    outer loop
      vertex 109.068 96.0351 70
      vertex 102.641 98.5461 70
      vertex 108.167 94.2212 70
    endloop
  endfacet
  facet normal 0 0 1
    outer loop
      vertex 109.621 97.9834 70
      vertex 102.641 98.5461 70
      vertex 109.068 96.0351 70
    endloop
  endfacet
  facet normal 0 0 1
    outer loop
      vertex 108.167 94.2212 70
      vertex 102.641 98.5461 70
      vertex 102.182 97.6709 70
    endloop
  endfacet
  facet normal 0 0 1
    outer loop
      vertex 101.849 89.4289 70
      vertex 99.7886 96.0191 70
      vertex 99.8597 89.0504 70
    endloop
  endfacet
  facet normal 0 0 1
    outer loop
      vertex 99.8597 110.95 70
      vertex 97.8345 110.957 70
      vertex 98.8074 104.1 70
    endloop
  endfacet
  facet normal 0 0 1
    outer loop
      vertex 100.713 96.3696 70
      vertex 99.7886 96.0191 70
      vertex 101.849 89.4289 70
    endloop
  endfacet
  facet normal 0 0 1
    outer loop
      vertex 109.807 100 70
      vertex 102.878 99.5058 70
      vertex 109.621 97.9834 70
    endloop
  endfacet
  facet normal 0 0 1
    outer loop
      vertex 109.621 97.9834 70
      vertex 102.878 99.5058 70
      vertex 102.641 98.5461 70
    endloop
  endfacet
  facet normal 0 0 1
    outer loop
      vertex 95.8422 89.4072 70
      vertex 98.8074 95.9 70
      vertex 93.9505 90.1303 70
    endloop
  endfacet
  facet normal 0 0 1
    outer loop
      vertex 91.7311 104.153 70
      vertex 90.5913 104.898 70
      vertex 91.2966 104.311 70
    endloop
  endfacet
  facet normal 0 0 1
    outer loop
      vertex 97.8345 89.0431 70
      vertex 98.8074 95.9 70
      vertex 95.8422 89.4072 70
    endloop
  endfacet
  facet normal 0 0 1
    outer loop
      vertex 91.2966 104.311 70
      vertex 90.5913 104.898 70
      vertex 90.9098 104.563 70
    endloop
  endfacet
  facet normal 0 0 1
    outer loop
      vertex 99.8597 89.0504 70
      vertex 98.8074 95.9 70
      vertex 97.8345 89.0431 70
    endloop
  endfacet
  facet normal 0 0 1
    outer loop
      vertex 99.7886 96.0191 70
      vertex 98.8074 95.9 70
      vertex 99.8597 89.0504 70
    endloop
  endfacet
  facet normal 0 0 1
    outer loop
      vertex 97.8345 110.957 70
      vertex 95.8422 110.593 70
      vertex 98.8074 104.1 70
    endloop
  endfacet
  facet normal 0 0 1
    outer loop
      vertex 109.621 102.017 70
      vertex 102.878 100.494 70
      vertex 109.807 100 70
    endloop
  endfacet
  facet normal 0 0 1
    outer loop
      vertex 109.807 100 70
      vertex 102.878 100.494 70
      vertex 102.878 99.5058 70
    endloop
  endfacet
  facet normal 0 0 1
    outer loop
      vertex 109.068 103.965 70
      vertex 102.641 101.454 70
      vertex 109.621 102.017 70
    endloop
  endfacet
  facet normal 0 0 1
    outer loop
      vertex 108.167 105.779 70
      vertex 102.641 101.454 70
      vertex 109.068 103.965 70
    endloop
  endfacet
  facet normal 0 0 1
    outer loop
      vertex 109.621 102.017 70
      vertex 102.641 101.454 70
      vertex 102.878 100.494 70
    endloop
  endfacet
  facet normal 0 0 1
    outer loop
      vertex 92.19 104.1 70
      vertex 90.2229 105.739 70
      vertex 91.7311 104.153 70
    endloop
  endfacet
  facet normal 0 0 1
    outer loop
      vertex 90.5913 104.898 70
      vertex 90.2229 105.739 70
      vertex 90.3582 105.297 70
    endloop
  endfacet
  facet normal 0 0 1
    outer loop
      vertex 91.7311 104.153 70
      vertex 90.2229 105.739 70
      vertex 90.5913 104.898 70
    endloop
  endfacet
  facet normal 0 0 1
    outer loop
      vertex 108.167 105.779 70
      vertex 102.182 102.329 70
      vertex 102.641 101.454 70
    endloop
  endfacet
  facet normal 0 0 1
    outer loop
      vertex 98.8074 104.1 70
      vertex 93.9505 109.87 70
      vertex 92.19 104.1 70
    endloop
  endfacet
  facet normal 0 0 1
    outer loop
      vertex 95.8422 110.593 70
      vertex 93.9505 109.87 70
      vertex 98.8074 104.1 70
    endloop
  endfacet
  facet normal 0 0 1
    outer loop
      vertex 108.167 105.779 70
      vertex 106.949 107.397 70
      vertex 102.182 102.329 70
    endloop
  endfacet
  facet normal 0 0 1
    outer loop
      vertex 106.949 107.397 70
      vertex 101.526 103.069 70
      vertex 102.182 102.329 70
    endloop
  endfacet
  facet normal 0 0 1
    outer loop
      vertex 93.9505 109.87 70
      vertex 92.2234 108.812 70
      vertex 92.19 104.1 70
    endloop
  endfacet
  facet normal 0 0 1
    outer loop
      vertex 90.2229 105.739 70
      vertex 90.4477 107.082 70
      vertex 90.1926 106.2 70
    endloop
  endfacet
  facet normal 0 0 1
    outer loop
      vertex 90.1926 106.2 70
      vertex 90.4477 107.082 70
      vertex 90.2688 106.656 70
    endloop
  endfacet
  facet normal 0 0 1
    outer loop
      vertex 92.19 104.1 70
      vertex 90.7195 107.456 70
      vertex 90.2229 105.739 70
    endloop
  endfacet
  facet normal 0 0 1
    outer loop
      vertex 92.2234 108.812 70
      vertex 90.7195 107.456 70
      vertex 92.19 104.1 70
    endloop
  endfacet
  facet normal 0.363822 0.931468 0
    outer loop
      vertex 103.736 109.834 0
      vertex 101.849 110.571 0
      vertex 103.736 109.834 70
    endloop
  endfacet
  facet normal 0.363822 0.931468 0
    outer loop
      vertex 103.736 109.834 70
      vertex 101.849 110.571 0
      vertex 101.849 110.571 70
    endloop
  endfacet
  facet normal 0.186889 0.982381 0
    outer loop
      vertex 101.849 110.571 0
      vertex 99.8597 110.95 0
      vertex 101.849 110.571 70
    endloop
  endfacet
  facet normal 0.186889 0.982381 0
    outer loop
      vertex 101.849 110.571 70
      vertex 99.8597 110.95 0
      vertex 99.8597 110.95 70
    endloop
  endfacet
  facet normal -0.669751 -0.742586 0
    outer loop
      vertex 90.7195 92.5444 0
      vertex 92.2234 91.188 0
      vertex 90.7195 92.5444 70
    endloop
  endfacet
  facet normal -0.669751 -0.742586 0
    outer loop
      vertex 90.7195 92.5444 70
      vertex 92.2234 91.188 0
      vertex 92.2234 91.188 70
    endloop
  endfacet
  facet normal 0.00362071 0.999993 0
    outer loop
      vertex 99.8597 110.95 0
      vertex 97.8345 110.957 0
      vertex 99.8597 110.95 70
    endloop
  endfacet
  facet normal 0.00362071 0.999993 0
    outer loop
      vertex 99.8597 110.95 70
      vertex 97.8345 110.957 0
      vertex 97.8345 110.957 70
    endloop
  endfacet
  facet normal -0.522261 -0.852786 0
    outer loop
      vertex 92.2234 91.188 70
      vertex 93.9505 90.1303 0
      vertex 93.9505 90.1303 70
    endloop
  endfacet
  facet normal -0.522261 -0.852786 0
    outer loop
      vertex 92.2234 91.188 0
      vertex 93.9505 90.1303 0
      vertex 92.2234 91.188 70
    endloop
  endfacet
  facet normal -0.17977 0.983709 0
    outer loop
      vertex 97.8345 110.957 70
      vertex 95.8422 110.593 0
      vertex 95.8422 110.593 70
    endloop
  endfacet
  facet normal -0.17977 0.983709 0
    outer loop
      vertex 97.8345 110.957 0
      vertex 95.8422 110.593 0
      vertex 97.8345 110.957 70
    endloop
  endfacet
  facet normal -0.357067 -0.934079 0
    outer loop
      vertex 93.9505 90.1303 70
      vertex 95.8422 89.4072 0
      vertex 95.8422 89.4072 70
    endloop
  endfacet
  facet normal -0.357067 -0.934079 0
    outer loop
      vertex 93.9505 90.1303 0
      vertex 95.8422 89.4072 0
      vertex 93.9505 90.1303 70
    endloop
  endfacet
  facet normal -0.357067 0.934079 0
    outer loop
      vertex 95.8422 110.593 70
      vertex 93.9505 109.87 0
      vertex 93.9505 109.87 70
    endloop
  endfacet
  facet normal -0.17977 -0.983709 0
    outer loop
      vertex 95.8422 89.4072 70
      vertex 97.8345 89.0431 0
      vertex 97.8345 89.0431 70
    endloop
  endfacet
  facet normal -0.357067 0.934079 0
    outer loop
      vertex 95.8422 110.593 0
      vertex 93.9505 109.87 0
      vertex 95.8422 110.593 70
    endloop
  endfacet
  facet normal -0.17977 -0.983709 0
    outer loop
      vertex 95.8422 89.4072 0
      vertex 97.8345 89.0431 0
      vertex 95.8422 89.4072 70
    endloop
  endfacet
  facet normal -0.522261 0.852786 0
    outer loop
      vertex 93.9505 109.87 0
      vertex 92.2234 108.812 0
      vertex 93.9505 109.87 70
    endloop
  endfacet
  facet normal -0.522261 0.852786 0
    outer loop
      vertex 93.9505 109.87 70
      vertex 92.2234 108.812 0
      vertex 92.2234 108.812 70
    endloop
  endfacet
  facet normal 0.00362071 -0.999993 0
    outer loop
      vertex 97.8345 89.0431 70
      vertex 99.8597 89.0504 0
      vertex 99.8597 89.0504 70
    endloop
  endfacet
  facet normal -0.669751 0.742586 0
    outer loop
      vertex 92.2234 108.812 70
      vertex 90.7195 107.456 0
      vertex 90.7195 107.456 70
    endloop
  endfacet
  facet normal 0.00362071 -0.999993 0
    outer loop
      vertex 97.8345 89.0431 0
      vertex 99.8597 89.0504 0
      vertex 97.8345 89.0431 70
    endloop
  endfacet
  facet normal -0.669751 0.742586 0
    outer loop
      vertex 92.2234 108.812 0
      vertex 90.7195 107.456 0
      vertex 92.2234 108.812 70
    endloop
  endfacet
  facet normal 0.186889 -0.982381 0
    outer loop
      vertex 99.8597 89.0504 70
      vertex 101.849 89.4289 0
      vertex 101.849 89.4289 70
    endloop
  endfacet
  facet normal 0.186889 -0.982381 0
    outer loop
      vertex 99.8597 89.0504 0
      vertex 101.849 89.4289 0
      vertex 99.8597 89.0504 70
    endloop
  endfacet
  facet normal 0.363822 -0.931468 0
    outer loop
      vertex 101.849 89.4289 70
      vertex 103.736 90.1658 0
      vertex 103.736 90.1658 70
    endloop
  endfacet
  facet normal 0.363822 -0.931468 0
    outer loop
      vertex 101.849 89.4289 0
      vertex 103.736 90.1658 0
      vertex 101.849 89.4289 70
    endloop
  endfacet
  facet normal 0.528423 -0.848981 0
    outer loop
      vertex 103.736 90.1658 70
      vertex 105.455 91.2359 0
      vertex 105.455 91.2359 70
    endloop
  endfacet
  facet normal 0.528423 -0.848981 0
    outer loop
      vertex 103.736 90.1658 0
      vertex 105.455 91.2359 0
      vertex 103.736 90.1658 70
    endloop
  endfacet
  facet normal 0.675111 -0.737716 0
    outer loop
      vertex 105.455 91.2359 70
      vertex 106.949 92.6032 0
      vertex 106.949 92.6032 70
    endloop
  endfacet
  facet normal 0.675111 -0.737716 0
    outer loop
      vertex 105.455 91.2359 0
      vertex 106.949 92.6032 0
      vertex 105.455 91.2359 70
    endloop
  endfacet
  facet normal 0.798915 -0.601444 0
    outer loop
      vertex 106.949 92.6032 70
      vertex 108.167 94.2212 0
      vertex 108.167 94.2212 70
    endloop
  endfacet
  facet normal 0.798915 -0.601444 0
    outer loop
      vertex 106.949 92.6032 0
      vertex 108.167 94.2212 0
      vertex 106.949 92.6032 70
    endloop
  endfacet
  facet normal 0.895638 -0.444785 0
    outer loop
      vertex 108.167 94.2212 0
      vertex 109.068 96.0351 0
      vertex 108.167 94.2212 70
    endloop
  endfacet
  facet normal 0.895638 -0.444785 0
    outer loop
      vertex 108.167 94.2212 70
      vertex 109.068 96.0351 0
      vertex 109.068 96.0351 70
    endloop
  endfacet
  facet normal 0.962 -0.273048 0
    outer loop
      vertex 109.068 96.0351 70
      vertex 109.068 96.0351 0
      vertex 109.621 97.9834 70
    endloop
  endfacet
  facet normal 0.962 -0.273048 0
    outer loop
      vertex 109.068 96.0351 0
      vertex 109.621 97.9834 0
      vertex 109.621 97.9834 70
    endloop
  endfacet
  facet normal 0.995754 -0.0920562 0
    outer loop
      vertex 109.621 97.9834 0
      vertex 109.807 100 0
      vertex 109.621 97.9834 70
    endloop
  endfacet
  facet normal 0.995754 -0.0920562 0
    outer loop
      vertex 109.621 97.9834 70
      vertex 109.807 100 0
      vertex 109.807 100 70
    endloop
  endfacet
  facet normal 0.995754 0.0920562 0
    outer loop
      vertex 109.807 100 0
      vertex 109.621 102.017 0
      vertex 109.807 100 70
    endloop
  endfacet
  facet normal 0.995754 0.0920562 0
    outer loop
      vertex 109.807 100 70
      vertex 109.621 102.017 0
      vertex 109.621 102.017 70
    endloop
  endfacet
  facet normal 0.962 0.273048 0
    outer loop
      vertex 109.621 102.017 0
      vertex 109.068 103.965 0
      vertex 109.621 102.017 70
    endloop
  endfacet
  facet normal 0.962 0.273048 0
    outer loop
      vertex 109.621 102.017 70
      vertex 109.068 103.965 0
      vertex 109.068 103.965 70
    endloop
  endfacet
  facet normal 0.895638 0.444785 0
    outer loop
      vertex 109.068 103.965 0
      vertex 108.167 105.779 0
      vertex 109.068 103.965 70
    endloop
  endfacet
  facet normal 0.895638 0.444785 0
    outer loop
      vertex 109.068 103.965 70
      vertex 108.167 105.779 0
      vertex 108.167 105.779 70
    endloop
  endfacet
  facet normal 0.798915 0.601444 0
    outer loop
      vertex 108.167 105.779 0
      vertex 106.949 107.397 0
      vertex 108.167 105.779 70
    endloop
  endfacet
  facet normal 0.798915 0.601444 0
    outer loop
      vertex 108.167 105.779 70
      vertex 106.949 107.397 0
      vertex 106.949 107.397 70
    endloop
  endfacet
  facet normal 0.675111 0.737716 0
    outer loop
      vertex 106.949 107.397 0
      vertex 105.455 108.764 0
      vertex 106.949 107.397 70
    endloop
  endfacet
  facet normal 0.675111 0.737716 0
    outer loop
      vertex 106.949 107.397 70
      vertex 105.455 108.764 0
      vertex 105.455 108.764 70
    endloop
  endfacet
  facet normal 0.528423 0.848981 0
    outer loop
      vertex 105.455 108.764 0
      vertex 103.736 109.834 0
      vertex 105.455 108.764 70
    endloop
  endfacet
  facet normal 0.528423 0.848981 0
    outer loop
      vertex 105.455 108.764 70
      vertex 103.736 109.834 0
      vertex 103.736 109.834 70
    endloop
  endfacet
  facet normal 0 1 0
    outer loop
      vertex 98.8074 95.9 0
      vertex 92.19 95.9 0
      vertex 98.8074 95.9 70
    endloop
  endfacet
  facet normal 0 1 0
    outer loop
      vertex 98.8074 95.9 70
      vertex 92.19 95.9 0
      vertex 92.19 95.9 70
    endloop
  endfacet
  facet normal -0.80864 -0.588304 0
    outer loop
      vertex 90.7195 92.5444 0
      vertex 90.7195 92.5444 70
      vertex 90.4477 92.9181 0
    endloop
  endfacet
  facet normal -0.80864 -0.588304 0
    outer loop
      vertex 90.7195 92.5444 70
      vertex 90.4477 92.9181 70
      vertex 90.4477 92.9181 0
    endloop
  endfacet
  facet normal -0.922068 -0.387028 0
    outer loop
      vertex 90.4477 92.9181 0
      vertex 90.2688 93.3442 70
      vertex 90.2688 93.3442 0
    endloop
  endfacet
  facet normal -0.922068 -0.387028 0
    outer loop
      vertex 90.4477 92.9181 70
      vertex 90.2688 93.3442 70
      vertex 90.4477 92.9181 0
    endloop
  endfacet
  facet normal -0.986278 -0.165094 0
    outer loop
      vertex 90.2688 93.3442 0
      vertex 90.1926 93.7999 70
      vertex 90.1926 93.7999 0
    endloop
  endfacet
  facet normal -0.986278 -0.165094 0
    outer loop
      vertex 90.2688 93.3442 70
      vertex 90.1926 93.7999 70
      vertex 90.2688 93.3442 0
    endloop
  endfacet
  facet normal -0.997843 0.0656528 0
    outer loop
      vertex 90.1926 93.7999 0
      vertex 90.2229 94.261 70
      vertex 90.2229 94.261 0
    endloop
  endfacet
  facet normal -0.997843 0.0656528 0
    outer loop
      vertex 90.1926 93.7999 70
      vertex 90.2229 94.261 70
      vertex 90.1926 93.7999 0
    endloop
  endfacet
  facet normal -0.956145 0.292895 0
    outer loop
      vertex 90.2229 94.261 0
      vertex 90.3582 94.7028 70
      vertex 90.3582 94.7028 0
    endloop
  endfacet
  facet normal -0.956145 0.292895 0
    outer loop
      vertex 90.2229 94.261 70
      vertex 90.3582 94.7028 70
      vertex 90.2229 94.261 0
    endloop
  endfacet
  facet normal -0.86341 0.504503 0
    outer loop
      vertex 90.3582 94.7028 0
      vertex 90.5913 95.1017 70
      vertex 90.5913 95.1017 0
    endloop
  endfacet
  facet normal -0.86341 0.504503 0
    outer loop
      vertex 90.3582 94.7028 70
      vertex 90.5913 95.1017 70
      vertex 90.3582 94.7028 0
    endloop
  endfacet
  facet normal -0.724588 0.689183 0
    outer loop
      vertex 90.5913 95.1017 0
      vertex 90.9098 95.4365 70
      vertex 90.9098 95.4365 0
    endloop
  endfacet
  facet normal -0.724588 0.689183 0
    outer loop
      vertex 90.5913 95.1017 70
      vertex 90.9098 95.4365 70
      vertex 90.5913 95.1017 0
    endloop
  endfacet
  facet normal -0.54709 0.837074 0
    outer loop
      vertex 90.9098 95.4365 0
      vertex 91.2966 95.6893 70
      vertex 91.2966 95.6893 0
    endloop
  endfacet
  facet normal -0.54709 0.837074 0
    outer loop
      vertex 90.9098 95.4365 70
      vertex 91.2966 95.6893 70
      vertex 90.9098 95.4365 0
    endloop
  endfacet
  facet normal -0.340388 0.940285 0
    outer loop
      vertex 91.2966 95.6893 0
      vertex 91.7311 95.8466 70
      vertex 91.7311 95.8466 0
    endloop
  endfacet
  facet normal -0.340388 0.940285 0
    outer loop
      vertex 91.2966 95.6893 70
      vertex 91.7311 95.8466 70
      vertex 91.2966 95.6893 0
    endloop
  endfacet
  facet normal -0.115518 0.993305 0
    outer loop
      vertex 91.7311 95.8466 0
      vertex 92.19 95.9 70
      vertex 92.19 95.9 0
    endloop
  endfacet
  facet normal -0.115518 0.993305 0
    outer loop
      vertex 91.7311 95.8466 70
      vertex 92.19 95.9 70
      vertex 91.7311 95.8466 0
    endloop
  endfacet
  facet normal 0 -1 0
    outer loop
      vertex 117.805 104.1 0
      vertex 124.422 104.1 0
      vertex 124.422 104.1 70
    endloop
  endfacet
  facet normal 0 -1 0
    outer loop
      vertex 117.805 104.1 0
      vertex 124.422 104.1 70
      vertex 117.805 104.1 70
    endloop
  endfacet
  facet normal 0 0 -1
    outer loop
      vertex 131.07 108.764 0
      vertex 132.564 107.397 0
      vertex 127.141 103.069 0
    endloop
  endfacet
  facet normal 0 0 -1
    outer loop
      vertex 116.334 107.456 0
      vertex 115.838 105.739 0
      vertex 116.063 107.082 0
    endloop
  endfacet
  facet normal 0 0 -1
    outer loop
      vertex 131.07 108.764 0
      vertex 127.141 103.069 0
      vertex 126.328 103.63 0
    endloop
  endfacet
  facet normal 0 0 -1
    outer loop
      vertex 117.805 95.9 0
      vertex 117.838 91.188 0
      vertex 116.334 92.5444 0
    endloop
  endfacet
  facet normal 0 0 -1
    outer loop
      vertex 117.805 95.9 0
      vertex 119.565 90.1303 0
      vertex 117.838 91.188 0
    endloop
  endfacet
  facet normal 0 0 -1
    outer loop
      vertex 117.805 95.9 0
      vertex 116.334 92.5444 0
      vertex 116.063 92.9181 0
    endloop
  endfacet
  facet normal 0 0 -1
    outer loop
      vertex 117.805 95.9 0
      vertex 124.422 95.9 0
      vertex 119.565 90.1303 0
    endloop
  endfacet
  facet normal 0 0 -1
    outer loop
      vertex 115.838 94.261 0
      vertex 116.063 92.9181 0
      vertex 115.884 93.3442 0
    endloop
  endfacet
  facet normal 0 0 -1
    outer loop
      vertex 115.838 94.261 0
      vertex 115.884 93.3442 0
      vertex 115.807 93.7999 0
    endloop
  endfacet
  facet normal 0 0 -1
    outer loop
      vertex 117.346 95.8466 0
      vertex 117.805 95.9 0
      vertex 116.063 92.9181 0
    endloop
  endfacet
  facet normal 0 0 -1
    outer loop
      vertex 117.346 95.8466 0
      vertex 116.063 92.9181 0
      vertex 115.838 94.261 0
    endloop
  endfacet
  facet normal 0 0 -1
    outer loop
      vertex 116.206 95.1017 0
      vertex 115.838 94.261 0
      vertex 115.973 94.7028 0
    endloop
  endfacet
  facet normal 0 0 -1
    outer loop
      vertex 116.525 95.4365 0
      vertex 117.346 95.8466 0
      vertex 115.838 94.261 0
    endloop
  endfacet
  facet normal 0 0 -1
    outer loop
      vertex 116.525 95.4365 0
      vertex 115.838 94.261 0
      vertex 116.206 95.1017 0
    endloop
  endfacet
  facet normal 0 0 -1
    outer loop
      vertex 116.525 95.4365 0
      vertex 116.911 95.6893 0
      vertex 117.346 95.8466 0
    endloop
  endfacet
  facet normal 0 0 -1
    outer loop
      vertex 129.351 109.834 0
      vertex 131.07 108.764 0
      vertex 126.328 103.63 0
    endloop
  endfacet
  facet normal 0 0 -1
    outer loop
      vertex 127.141 96.9311 0
      vertex 132.564 92.6032 0
      vertex 131.07 91.2359 0
    endloop
  endfacet
  facet normal 0 0 -1
    outer loop
      vertex 127.464 110.571 0
      vertex 126.328 103.63 0
      vertex 125.404 103.981 0
    endloop
  endfacet
  facet normal 0 0 -1
    outer loop
      vertex 127.464 110.571 0
      vertex 129.351 109.834 0
      vertex 126.328 103.63 0
    endloop
  endfacet
  facet normal 0 0 -1
    outer loop
      vertex 125.475 110.95 0
      vertex 125.404 103.981 0
      vertex 124.422 104.1 0
    endloop
  endfacet
  facet normal 0 0 -1
    outer loop
      vertex 127.797 97.6709 0
      vertex 133.782 94.2212 0
      vertex 132.564 92.6032 0
    endloop
  endfacet
  facet normal 0 0 -1
    outer loop
      vertex 125.475 110.95 0
      vertex 127.464 110.571 0
      vertex 125.404 103.981 0
    endloop
  endfacet
  facet normal 0 0 -1
    outer loop
      vertex 127.797 97.6709 0
      vertex 132.564 92.6032 0
      vertex 127.141 96.9311 0
    endloop
  endfacet
  facet normal 0 0 -1
    outer loop
      vertex 126.328 96.3696 0
      vertex 129.351 90.1658 0
      vertex 127.464 89.4289 0
    endloop
  endfacet
  facet normal 0 0 -1
    outer loop
      vertex 126.328 96.3696 0
      vertex 131.07 91.2359 0
      vertex 129.351 90.1658 0
    endloop
  endfacet
  facet normal 0 0 -1
    outer loop
      vertex 126.328 96.3696 0
      vertex 127.141 96.9311 0
      vertex 131.07 91.2359 0
    endloop
  endfacet
  facet normal 0 0 -1
    outer loop
      vertex 128.256 98.5461 0
      vertex 134.683 96.0351 0
      vertex 133.782 94.2212 0
    endloop
  endfacet
  facet normal 0 0 -1
    outer loop
      vertex 128.256 98.5461 0
      vertex 135.236 97.9834 0
      vertex 134.683 96.0351 0
    endloop
  endfacet
  facet normal 0 0 -1
    outer loop
      vertex 128.256 98.5461 0
      vertex 133.782 94.2212 0
      vertex 127.797 97.6709 0
    endloop
  endfacet
  facet normal 0 0 -1
    outer loop
      vertex 125.404 96.0191 0
      vertex 127.464 89.4289 0
      vertex 125.475 89.0504 0
    endloop
  endfacet
  facet normal 0 0 -1
    outer loop
      vertex 123.449 110.957 0
      vertex 125.475 110.95 0
      vertex 124.422 104.1 0
    endloop
  endfacet
  facet normal 0 0 -1
    outer loop
      vertex 125.404 96.0191 0
      vertex 126.328 96.3696 0
      vertex 127.464 89.4289 0
    endloop
  endfacet
  facet normal 0 0 -1
    outer loop
      vertex 128.492 99.5058 0
      vertex 135.422 100 0
      vertex 135.236 97.9834 0
    endloop
  endfacet
  facet normal 0 0 -1
    outer loop
      vertex 128.492 99.5058 0
      vertex 135.236 97.9834 0
      vertex 128.256 98.5461 0
    endloop
  endfacet
  facet normal 0 0 -1
    outer loop
      vertex 124.422 95.9 0
      vertex 121.457 89.4072 0
      vertex 119.565 90.1303 0
    endloop
  endfacet
  facet normal 0 0 -1
    outer loop
      vertex 116.206 104.898 0
      vertex 117.346 104.153 0
      vertex 116.911 104.311 0
    endloop
  endfacet
  facet normal 0 0 -1
    outer loop
      vertex 124.422 95.9 0
      vertex 123.449 89.0431 0
      vertex 121.457 89.4072 0
    endloop
  endfacet
  facet normal 0 0 -1
    outer loop
      vertex 116.206 104.898 0
      vertex 116.911 104.311 0
      vertex 116.525 104.563 0
    endloop
  endfacet
  facet normal 0 0 -1
    outer loop
      vertex 124.422 95.9 0
      vertex 125.475 89.0504 0
      vertex 123.449 89.0431 0
    endloop
  endfacet
  facet normal 0 0 -1
    outer loop
      vertex 124.422 95.9 0
      vertex 125.404 96.0191 0
      vertex 125.475 89.0504 0
    endloop
  endfacet
  facet normal 0 0 -1
    outer loop
      vertex 121.457 110.593 0
      vertex 123.449 110.957 0
      vertex 124.422 104.1 0
    endloop
  endfacet
  facet normal 0 0 -1
    outer loop
      vertex 128.492 100.494 0
      vertex 135.236 102.017 0
      vertex 135.422 100 0
    endloop
  endfacet
  facet normal 0 0 -1
    outer loop
      vertex 128.492 100.494 0
      vertex 135.422 100 0
      vertex 128.492 99.5058 0
    endloop
  endfacet
  facet normal 0 0 -1
    outer loop
      vertex 128.256 101.454 0
      vertex 134.683 103.965 0
      vertex 135.236 102.017 0
    endloop
  endfacet
  facet normal 0 0 -1
    outer loop
      vertex 128.256 101.454 0
      vertex 133.782 105.779 0
      vertex 134.683 103.965 0
    endloop
  endfacet
  facet normal 0 0 -1
    outer loop
      vertex 128.256 101.454 0
      vertex 135.236 102.017 0
      vertex 128.492 100.494 0
    endloop
  endfacet
  facet normal 0 0 -1
    outer loop
      vertex 115.838 105.739 0
      vertex 117.805 104.1 0
      vertex 117.346 104.153 0
    endloop
  endfacet
  facet normal 0 0 -1
    outer loop
      vertex 115.838 105.739 0
      vertex 116.206 104.898 0
      vertex 115.973 105.297 0
    endloop
  endfacet
  facet normal 0 0 -1
    outer loop
      vertex 115.838 105.739 0
      vertex 117.346 104.153 0
      vertex 116.206 104.898 0
    endloop
  endfacet
  facet normal 0 0 -1
    outer loop
      vertex 127.797 102.329 0
      vertex 133.782 105.779 0
      vertex 128.256 101.454 0
    endloop
  endfacet
  facet normal 0 0 -1
    outer loop
      vertex 119.565 109.87 0
      vertex 124.422 104.1 0
      vertex 117.805 104.1 0
    endloop
  endfacet
  facet normal 0 0 -1
    outer loop
      vertex 119.565 109.87 0
      vertex 121.457 110.593 0
      vertex 124.422 104.1 0
    endloop
  endfacet
  facet normal 0 0 -1
    outer loop
      vertex 132.564 107.397 0
      vertex 133.782 105.779 0
      vertex 127.797 102.329 0
    endloop
  endfacet
  facet normal 0 0 -1
    outer loop
      vertex 127.141 103.069 0
      vertex 132.564 107.397 0
      vertex 127.797 102.329 0
    endloop
  endfacet
  facet normal 0 0 -1
    outer loop
      vertex 117.838 108.812 0
      vertex 119.565 109.87 0
      vertex 117.805 104.1 0
    endloop
  endfacet
  facet normal 0 0 -1
    outer loop
      vertex 116.063 107.082 0
      vertex 115.838 105.739 0
      vertex 115.807 106.2 0
    endloop
  endfacet
  facet normal 0 0 -1
    outer loop
      vertex 116.063 107.082 0
      vertex 115.807 106.2 0
      vertex 115.884 106.656 0
    endloop
  endfacet
  facet normal 0 0 -1
    outer loop
      vertex 116.334 107.456 0
      vertex 117.805 104.1 0
      vertex 115.838 105.739 0
    endloop
  endfacet
  facet normal 0 0 -1
    outer loop
      vertex 116.334 107.456 0
      vertex 117.838 108.812 0
      vertex 117.805 104.1 0
    endloop
  endfacet
  facet normal -0.115518 -0.993305 0
    outer loop
      vertex 117.805 104.1 0
      vertex 117.805 104.1 70
      vertex 117.346 104.153 0
    endloop
  endfacet
  facet normal -0.115518 -0.993305 0
    outer loop
      vertex 117.805 104.1 70
      vertex 117.346 104.153 70
      vertex 117.346 104.153 0
    endloop
  endfacet
  facet normal -0.340388 -0.940285 0
    outer loop
      vertex 117.346 104.153 0
      vertex 116.911 104.311 70
      vertex 116.911 104.311 0
    endloop
  endfacet
  facet normal -0.54709 -0.837074 0
    outer loop
      vertex 116.911 104.311 0
      vertex 116.911 104.311 70
      vertex 116.525 104.563 0
    endloop
  endfacet
  facet normal -0.340388 -0.940285 0
    outer loop
      vertex 117.346 104.153 70
      vertex 116.911 104.311 70
      vertex 117.346 104.153 0
    endloop
  endfacet
  facet normal -0.54709 -0.837074 0
    outer loop
      vertex 116.911 104.311 70
      vertex 116.525 104.563 70
      vertex 116.525 104.563 0
    endloop
  endfacet
  facet normal -0.724588 -0.689183 0
    outer loop
      vertex 116.525 104.563 0
      vertex 116.206 104.898 70
      vertex 116.206 104.898 0
    endloop
  endfacet
  facet normal -0.724588 -0.689183 0
    outer loop
      vertex 116.525 104.563 70
      vertex 116.206 104.898 70
      vertex 116.525 104.563 0
    endloop
  endfacet
  facet normal -0.86341 -0.504503 0
    outer loop
      vertex 116.206 104.898 0
      vertex 115.973 105.297 70
      vertex 115.973 105.297 0
    endloop
  endfacet
  facet normal -0.86341 -0.504503 0
    outer loop
      vertex 116.206 104.898 70
      vertex 115.973 105.297 70
      vertex 116.206 104.898 0
    endloop
  endfacet
  facet normal -0.956145 -0.292895 0
    outer loop
      vertex 115.973 105.297 0
      vertex 115.838 105.739 70
      vertex 115.838 105.739 0
    endloop
  endfacet
  facet normal -0.956145 -0.292895 0
    outer loop
      vertex 115.973 105.297 70
      vertex 115.838 105.739 70
      vertex 115.973 105.297 0
    endloop
  endfacet
  facet normal -0.997843 -0.0656528 0
    outer loop
      vertex 115.838 105.739 0
      vertex 115.807 106.2 70
      vertex 115.807 106.2 0
    endloop
  endfacet
  facet normal -0.997843 -0.0656528 0
    outer loop
      vertex 115.838 105.739 70
      vertex 115.807 106.2 70
      vertex 115.838 105.739 0
    endloop
  endfacet
  facet normal -0.986278 0.165094 0
    outer loop
      vertex 115.807 106.2 0
      vertex 115.884 106.656 70
      vertex 115.884 106.656 0
    endloop
  endfacet
  facet normal -0.986278 0.165094 0
    outer loop
      vertex 115.807 106.2 70
      vertex 115.884 106.656 70
      vertex 115.807 106.2 0
    endloop
  endfacet
  facet normal -0.922068 0.387028 0
    outer loop
      vertex 115.884 106.656 0
      vertex 116.063 107.082 70
      vertex 116.063 107.082 0
    endloop
  endfacet
  facet normal -0.922068 0.387028 0
    outer loop
      vertex 115.884 106.656 70
      vertex 116.063 107.082 70
      vertex 115.884 106.656 0
    endloop
  endfacet
  facet normal -0.80864 0.588304 0
    outer loop
      vertex 116.063 107.082 0
      vertex 116.334 107.456 70
      vertex 116.334 107.456 0
    endloop
  endfacet
  facet normal -0.80864 0.588304 0
    outer loop
      vertex 116.063 107.082 70
      vertex 116.334 107.456 70
      vertex 116.063 107.082 0
    endloop
  endfacet
  facet normal -0.120537 0.992709 0
    outer loop
      vertex 125.404 96.0191 0
      vertex 124.422 95.9 0
      vertex 124.422 95.9 70
    endloop
  endfacet
  facet normal -0.120537 0.992709 0
    outer loop
      vertex 125.404 96.0191 0
      vertex 124.422 95.9 70
      vertex 125.404 96.0191 70
    endloop
  endfacet
  facet normal -0.354605 0.935016 0
    outer loop
      vertex 126.328 96.3696 0
      vertex 125.404 96.0191 70
      vertex 126.328 96.3696 70
    endloop
  endfacet
  facet normal -0.354605 0.935016 0
    outer loop
      vertex 126.328 96.3696 0
      vertex 125.404 96.0191 0
      vertex 125.404 96.0191 70
    endloop
  endfacet
  facet normal -0.568065 0.822984 0
    outer loop
      vertex 127.141 96.9311 0
      vertex 126.328 96.3696 70
      vertex 127.141 96.9311 70
    endloop
  endfacet
  facet normal -0.568065 0.822984 0
    outer loop
      vertex 127.141 96.9311 0
      vertex 126.328 96.3696 0
      vertex 126.328 96.3696 70
    endloop
  endfacet
  facet normal -0.748511 0.663123 0
    outer loop
      vertex 127.797 97.6709 0
      vertex 127.141 96.9311 70
      vertex 127.797 97.6709 70
    endloop
  endfacet
  facet normal -0.748511 0.663123 0
    outer loop
      vertex 127.797 97.6709 0
      vertex 127.141 96.9311 0
      vertex 127.141 96.9311 70
    endloop
  endfacet
  facet normal -0.885456 0.464723 0
    outer loop
      vertex 128.256 98.5461 0
      vertex 127.797 97.6709 70
      vertex 128.256 98.5461 70
    endloop
  endfacet
  facet normal -0.885456 0.464723 0
    outer loop
      vertex 128.256 98.5461 0
      vertex 127.797 97.6709 0
      vertex 127.797 97.6709 70
    endloop
  endfacet
  facet normal -0.970942 0.239316 0
    outer loop
      vertex 128.492 99.5058 0
      vertex 128.256 98.5461 70
      vertex 128.492 99.5058 70
    endloop
  endfacet
  facet normal -0.970942 0.239316 0
    outer loop
      vertex 128.492 99.5058 0
      vertex 128.256 98.5461 0
      vertex 128.256 98.5461 70
    endloop
  endfacet
  facet normal -1 0 0
    outer loop
      vertex 128.492 100.494 0
      vertex 128.492 99.5058 70
      vertex 128.492 100.494 70
    endloop
  endfacet
  facet normal -1 0 0
    outer loop
      vertex 128.492 100.494 0
      vertex 128.492 99.5058 0
      vertex 128.492 99.5058 70
    endloop
  endfacet
  facet normal -0.970942 -0.239316 0
    outer loop
      vertex 128.256 101.454 0
      vertex 128.492 100.494 70
      vertex 128.256 101.454 70
    endloop
  endfacet
  facet normal -0.970942 -0.239316 0
    outer loop
      vertex 128.256 101.454 0
      vertex 128.492 100.494 0
      vertex 128.492 100.494 70
    endloop
  endfacet
  facet normal -0.885456 -0.464723 0
    outer loop
      vertex 127.797 102.329 0
      vertex 128.256 101.454 70
      vertex 127.797 102.329 70
    endloop
  endfacet
  facet normal -0.885456 -0.464723 0
    outer loop
      vertex 127.797 102.329 0
      vertex 128.256 101.454 0
      vertex 128.256 101.454 70
    endloop
  endfacet
  facet normal -0.748511 -0.663123 0
    outer loop
      vertex 127.141 103.069 0
      vertex 127.797 102.329 70
      vertex 127.141 103.069 70
    endloop
  endfacet
  facet normal -0.748511 -0.663123 0
    outer loop
      vertex 127.141 103.069 0
      vertex 127.797 102.329 0
      vertex 127.797 102.329 70
    endloop
  endfacet
  facet normal -0.568065 -0.822984 0
    outer loop
      vertex 126.328 103.63 0
      vertex 127.141 103.069 70
      vertex 126.328 103.63 70
    endloop
  endfacet
  facet normal -0.568065 -0.822984 0
    outer loop
      vertex 126.328 103.63 0
      vertex 127.141 103.069 0
      vertex 127.141 103.069 70
    endloop
  endfacet
  facet normal -0.354605 -0.935016 0
    outer loop
      vertex 125.404 103.981 0
      vertex 126.328 103.63 70
      vertex 125.404 103.981 70
    endloop
  endfacet
  facet normal -0.120537 -0.992709 0
    outer loop
      vertex 125.404 103.981 0
      vertex 125.404 103.981 70
      vertex 124.422 104.1 70
    endloop
  endfacet
  facet normal -0.354605 -0.935016 0
    outer loop
      vertex 125.404 103.981 0
      vertex 126.328 103.63 0
      vertex 126.328 103.63 70
    endloop
  endfacet
  facet normal -0.120537 -0.992709 0
    outer loop
      vertex 124.422 104.1 0
      vertex 125.404 103.981 0
      vertex 124.422 104.1 70
    endloop
  endfacet
  facet normal 0 0 1
    outer loop
      vertex 115.838 105.739 70
      vertex 116.334 107.456 70
      vertex 116.063 107.082 70
    endloop
  endfacet
  facet normal 0 0 1
    outer loop
      vertex 132.564 107.397 70
      vertex 131.07 108.764 70
      vertex 127.141 103.069 70
    endloop
  endfacet
  facet normal 0 0 1
    outer loop
      vertex 127.141 103.069 70
      vertex 131.07 108.764 70
      vertex 126.328 103.63 70
    endloop
  endfacet
  facet normal 0 0 1
    outer loop
      vertex 117.838 91.188 70
      vertex 117.805 95.9 70
      vertex 116.334 92.5444 70
    endloop
  endfacet
  facet normal 0 0 1
    outer loop
      vertex 119.565 90.1303 70
      vertex 117.805 95.9 70
      vertex 117.838 91.188 70
    endloop
  endfacet
  facet normal 0 0 1
    outer loop
      vertex 116.334 92.5444 70
      vertex 117.805 95.9 70
      vertex 116.063 92.9181 70
    endloop
  endfacet
  facet normal 0 0 1
    outer loop
      vertex 124.422 95.9 70
      vertex 117.805 95.9 70
      vertex 119.565 90.1303 70
    endloop
  endfacet
  facet normal 0 0 1
    outer loop
      vertex 116.063 92.9181 70
      vertex 115.838 94.261 70
      vertex 115.884 93.3442 70
    endloop
  endfacet
  facet normal 0 0 1
    outer loop
      vertex 115.884 93.3442 70
      vertex 115.838 94.261 70
      vertex 115.807 93.7999 70
    endloop
  endfacet
  facet normal 0 0 1
    outer loop
      vertex 117.805 95.9 70
      vertex 117.346 95.8466 70
      vertex 116.063 92.9181 70
    endloop
  endfacet
  facet normal 0 0 1
    outer loop
      vertex 116.063 92.9181 70
      vertex 117.346 95.8466 70
      vertex 115.838 94.261 70
    endloop
  endfacet
  facet normal 0 0 1
    outer loop
      vertex 115.838 94.261 70
      vertex 116.206 95.1017 70
      vertex 115.973 94.7028 70
    endloop
  endfacet
  facet normal 0 0 1
    outer loop
      vertex 117.346 95.8466 70
      vertex 116.525 95.4365 70
      vertex 115.838 94.261 70
    endloop
  endfacet
  facet normal 0 0 1
    outer loop
      vertex 115.838 94.261 70
      vertex 116.525 95.4365 70
      vertex 116.206 95.1017 70
    endloop
  endfacet
  facet normal 0 0 1
    outer loop
      vertex 116.911 95.6893 70
      vertex 116.525 95.4365 70
      vertex 117.346 95.8466 70
    endloop
  endfacet
  facet normal 0 0 1
    outer loop
      vertex 131.07 108.764 70
      vertex 129.351 109.834 70
      vertex 126.328 103.63 70
    endloop
  endfacet
  facet normal 0 0 1
    outer loop
      vertex 132.564 92.6032 70
      vertex 127.141 96.9311 70
      vertex 131.07 91.2359 70
    endloop
  endfacet
  facet normal 0 0 1
    outer loop
      vertex 126.328 103.63 70
      vertex 127.464 110.571 70
      vertex 125.404 103.981 70
    endloop
  endfacet
  facet normal 0 0 1
    outer loop
      vertex 129.351 109.834 70
      vertex 127.464 110.571 70
      vertex 126.328 103.63 70
    endloop
  endfacet
  facet normal 0 0 1
    outer loop
      vertex 125.404 103.981 70
      vertex 125.475 110.95 70
      vertex 124.422 104.1 70
    endloop
  endfacet
  facet normal 0 0 1
    outer loop
      vertex 133.782 94.2212 70
      vertex 127.797 97.6709 70
      vertex 132.564 92.6032 70
    endloop
  endfacet
  facet normal 0 0 1
    outer loop
      vertex 127.464 110.571 70
      vertex 125.475 110.95 70
      vertex 125.404 103.981 70
    endloop
  endfacet
  facet normal 0 0 1
    outer loop
      vertex 132.564 92.6032 70
      vertex 127.797 97.6709 70
      vertex 127.141 96.9311 70
    endloop
  endfacet
  facet normal 0 0 1
    outer loop
      vertex 129.351 90.1658 70
      vertex 126.328 96.3696 70
      vertex 127.464 89.4289 70
    endloop
  endfacet
  facet normal 0 0 1
    outer loop
      vertex 131.07 91.2359 70
      vertex 126.328 96.3696 70
      vertex 129.351 90.1658 70
    endloop
  endfacet
  facet normal 0 0 1
    outer loop
      vertex 127.141 96.9311 70
      vertex 126.328 96.3696 70
      vertex 131.07 91.2359 70
    endloop
  endfacet
  facet normal 0 0 1
    outer loop
      vertex 134.683 96.0351 70
      vertex 128.256 98.5461 70
      vertex 133.782 94.2212 70
    endloop
  endfacet
  facet normal 0 0 1
    outer loop
      vertex 135.236 97.9834 70
      vertex 128.256 98.5461 70
      vertex 134.683 96.0351 70
    endloop
  endfacet
  facet normal 0 0 1
    outer loop
      vertex 133.782 94.2212 70
      vertex 128.256 98.5461 70
      vertex 127.797 97.6709 70
    endloop
  endfacet
  facet normal 0 0 1
    outer loop
      vertex 127.464 89.4289 70
      vertex 125.404 96.0191 70
      vertex 125.475 89.0504 70
    endloop
  endfacet
  facet normal 0 0 1
    outer loop
      vertex 125.475 110.95 70
      vertex 123.449 110.957 70
      vertex 124.422 104.1 70
    endloop
  endfacet
  facet normal 0 0 1
    outer loop
      vertex 126.328 96.3696 70
      vertex 125.404 96.0191 70
      vertex 127.464 89.4289 70
    endloop
  endfacet
  facet normal 0 0 1
    outer loop
      vertex 135.422 100 70
      vertex 128.492 99.5058 70
      vertex 135.236 97.9834 70
    endloop
  endfacet
  facet normal 0 0 1
    outer loop
      vertex 135.236 97.9834 70
      vertex 128.492 99.5058 70
      vertex 128.256 98.5461 70
    endloop
  endfacet
  facet normal 0 0 1
    outer loop
      vertex 121.457 89.4072 70
      vertex 124.422 95.9 70
      vertex 119.565 90.1303 70
    endloop
  endfacet
  facet normal 0 0 1
    outer loop
      vertex 117.346 104.153 70
      vertex 116.206 104.898 70
      vertex 116.911 104.311 70
    endloop
  endfacet
  facet normal 0 0 1
    outer loop
      vertex 123.449 89.0431 70
      vertex 124.422 95.9 70
      vertex 121.457 89.4072 70
    endloop
  endfacet
  facet normal 0 0 1
    outer loop
      vertex 116.911 104.311 70
      vertex 116.206 104.898 70
      vertex 116.525 104.563 70
    endloop
  endfacet
  facet normal 0 0 1
    outer loop
      vertex 125.475 89.0504 70
      vertex 124.422 95.9 70
      vertex 123.449 89.0431 70
    endloop
  endfacet
  facet normal 0 0 1
    outer loop
      vertex 125.404 96.0191 70
      vertex 124.422 95.9 70
      vertex 125.475 89.0504 70
    endloop
  endfacet
  facet normal 0 0 1
    outer loop
      vertex 123.449 110.957 70
      vertex 121.457 110.593 70
      vertex 124.422 104.1 70
    endloop
  endfacet
  facet normal 0 0 1
    outer loop
      vertex 135.236 102.017 70
      vertex 128.492 100.494 70
      vertex 135.422 100 70
    endloop
  endfacet
  facet normal 0 0 1
    outer loop
      vertex 135.422 100 70
      vertex 128.492 100.494 70
      vertex 128.492 99.5058 70
    endloop
  endfacet
  facet normal 0 0 1
    outer loop
      vertex 134.683 103.965 70
      vertex 128.256 101.454 70
      vertex 135.236 102.017 70
    endloop
  endfacet
  facet normal 0 0 1
    outer loop
      vertex 133.782 105.779 70
      vertex 128.256 101.454 70
      vertex 134.683 103.965 70
    endloop
  endfacet
  facet normal 0 0 1
    outer loop
      vertex 135.236 102.017 70
      vertex 128.256 101.454 70
      vertex 128.492 100.494 70
    endloop
  endfacet
  facet normal 0 0 1
    outer loop
      vertex 117.805 104.1 70
      vertex 115.838 105.739 70
      vertex 117.346 104.153 70
    endloop
  endfacet
  facet normal 0 0 1
    outer loop
      vertex 116.206 104.898 70
      vertex 115.838 105.739 70
      vertex 115.973 105.297 70
    endloop
  endfacet
  facet normal 0 0 1
    outer loop
      vertex 117.346 104.153 70
      vertex 115.838 105.739 70
      vertex 116.206 104.898 70
    endloop
  endfacet
  facet normal 0 0 1
    outer loop
      vertex 133.782 105.779 70
      vertex 127.797 102.329 70
      vertex 128.256 101.454 70
    endloop
  endfacet
  facet normal 0 0 1
    outer loop
      vertex 124.422 104.1 70
      vertex 119.565 109.87 70
      vertex 117.805 104.1 70
    endloop
  endfacet
  facet normal 0 0 1
    outer loop
      vertex 121.457 110.593 70
      vertex 119.565 109.87 70
      vertex 124.422 104.1 70
    endloop
  endfacet
  facet normal 0 0 1
    outer loop
      vertex 133.782 105.779 70
      vertex 132.564 107.397 70
      vertex 127.797 102.329 70
    endloop
  endfacet
  facet normal 0 0 1
    outer loop
      vertex 132.564 107.397 70
      vertex 127.141 103.069 70
      vertex 127.797 102.329 70
    endloop
  endfacet
  facet normal 0 0 1
    outer loop
      vertex 119.565 109.87 70
      vertex 117.838 108.812 70
      vertex 117.805 104.1 70
    endloop
  endfacet
  facet normal 0 0 1
    outer loop
      vertex 115.838 105.739 70
      vertex 116.063 107.082 70
      vertex 115.807 106.2 70
    endloop
  endfacet
  facet normal 0 0 1
    outer loop
      vertex 115.807 106.2 70
      vertex 116.063 107.082 70
      vertex 115.884 106.656 70
    endloop
  endfacet
  facet normal 0 0 1
    outer loop
      vertex 117.805 104.1 70
      vertex 116.334 107.456 70
      vertex 115.838 105.739 70
    endloop
  endfacet
  facet normal 0 0 1
    outer loop
      vertex 117.838 108.812 70
      vertex 116.334 107.456 70
      vertex 117.805 104.1 70
    endloop
  endfacet
  facet normal 0.363822 0.931468 0
    outer loop
      vertex 129.351 109.834 0
      vertex 127.464 110.571 0
      vertex 129.351 109.834 70
    endloop
  endfacet
  facet normal 0.363822 0.931468 0
    outer loop
      vertex 129.351 109.834 70
      vertex 127.464 110.571 0
      vertex 127.464 110.571 70
    endloop
  endfacet
  facet normal 0.186889 0.982381 0
    outer loop
      vertex 127.464 110.571 0
      vertex 125.475 110.95 0
      vertex 127.464 110.571 70
    endloop
  endfacet
  facet normal 0.186889 0.982381 0
    outer loop
      vertex 127.464 110.571 70
      vertex 125.475 110.95 0
      vertex 125.475 110.95 70
    endloop
  endfacet
  facet normal -0.669751 -0.742586 0
    outer loop
      vertex 116.334 92.5444 0
      vertex 117.838 91.188 0
      vertex 116.334 92.5444 70
    endloop
  endfacet
  facet normal -0.669751 -0.742586 0
    outer loop
      vertex 116.334 92.5444 70
      vertex 117.838 91.188 0
      vertex 117.838 91.188 70
    endloop
  endfacet
  facet normal 0.00362071 0.999993 0
    outer loop
      vertex 125.475 110.95 0
      vertex 123.449 110.957 0
      vertex 125.475 110.95 70
    endloop
  endfacet
  facet normal 0.00362071 0.999993 0
    outer loop
      vertex 125.475 110.95 70
      vertex 123.449 110.957 0
      vertex 123.449 110.957 70
    endloop
  endfacet
  facet normal -0.522261 -0.852786 0
    outer loop
      vertex 117.838 91.188 70
      vertex 119.565 90.1303 0
      vertex 119.565 90.1303 70
    endloop
  endfacet
  facet normal -0.522261 -0.852786 0
    outer loop
      vertex 117.838 91.188 0
      vertex 119.565 90.1303 0
      vertex 117.838 91.188 70
    endloop
  endfacet
  facet normal -0.17977 0.983709 0
    outer loop
      vertex 123.449 110.957 70
      vertex 121.457 110.593 0
      vertex 121.457 110.593 70
    endloop
  endfacet
  facet normal -0.17977 0.983709 0
    outer loop
      vertex 123.449 110.957 0
      vertex 121.457 110.593 0
      vertex 123.449 110.957 70
    endloop
  endfacet
  facet normal -0.357067 -0.934079 0
    outer loop
      vertex 119.565 90.1303 70
      vertex 121.457 89.4072 0
      vertex 121.457 89.4072 70
    endloop
  endfacet
  facet normal -0.357067 -0.934079 0
    outer loop
      vertex 119.565 90.1303 0
      vertex 121.457 89.4072 0
      vertex 119.565 90.1303 70
    endloop
  endfacet
  facet normal -0.357067 0.934079 0
    outer loop
      vertex 121.457 110.593 70
      vertex 119.565 109.87 0
      vertex 119.565 109.87 70
    endloop
  endfacet
  facet normal -0.17977 -0.983709 0
    outer loop
      vertex 121.457 89.4072 70
      vertex 123.449 89.0431 0
      vertex 123.449 89.0431 70
    endloop
  endfacet
  facet normal -0.357067 0.934079 0
    outer loop
      vertex 121.457 110.593 0
      vertex 119.565 109.87 0
      vertex 121.457 110.593 70
    endloop
  endfacet
  facet normal -0.17977 -0.983709 0
    outer loop
      vertex 121.457 89.4072 0
      vertex 123.449 89.0431 0
      vertex 121.457 89.4072 70
    endloop
  endfacet
  facet normal -0.522261 0.852786 0
    outer loop
      vertex 119.565 109.87 0
      vertex 117.838 108.812 0
      vertex 119.565 109.87 70
    endloop
  endfacet
  facet normal -0.522261 0.852786 0
    outer loop
      vertex 119.565 109.87 70
      vertex 117.838 108.812 0
      vertex 117.838 108.812 70
    endloop
  endfacet
  facet normal 0.00362071 -0.999993 0
    outer loop
      vertex 123.449 89.0431 70
      vertex 125.475 89.0504 0
      vertex 125.475 89.0504 70
    endloop
  endfacet
  facet normal -0.669751 0.742586 0
    outer loop
      vertex 117.838 108.812 70
      vertex 116.334 107.456 0
      vertex 116.334 107.456 70
    endloop
  endfacet
  facet normal 0.00362071 -0.999993 0
    outer loop
      vertex 123.449 89.0431 0
      vertex 125.475 89.0504 0
      vertex 123.449 89.0431 70
    endloop
  endfacet
  facet normal -0.669751 0.742586 0
    outer loop
      vertex 117.838 108.812 0
      vertex 116.334 107.456 0
      vertex 117.838 108.812 70
    endloop
  endfacet
  facet normal 0.186889 -0.982381 0
    outer loop
      vertex 125.475 89.0504 70
      vertex 127.464 89.4289 0
      vertex 127.464 89.4289 70
    endloop
  endfacet
  facet normal 0.186889 -0.982381 0
    outer loop
      vertex 125.475 89.0504 0
      vertex 127.464 89.4289 0
      vertex 125.475 89.0504 70
    endloop
  endfacet
  facet normal 0.363822 -0.931468 0
    outer loop
      vertex 127.464 89.4289 70
      vertex 129.351 90.1658 0
      vertex 129.351 90.1658 70
    endloop
  endfacet
  facet normal 0.363822 -0.931468 0
    outer loop
      vertex 127.464 89.4289 0
      vertex 129.351 90.1658 0
      vertex 127.464 89.4289 70
    endloop
  endfacet
  facet normal 0.528423 -0.848981 0
    outer loop
      vertex 129.351 90.1658 70
      vertex 131.07 91.2359 0
      vertex 131.07 91.2359 70
    endloop
  endfacet
  facet normal 0.528423 -0.848981 0
    outer loop
      vertex 129.351 90.1658 0
      vertex 131.07 91.2359 0
      vertex 129.351 90.1658 70
    endloop
  endfacet
  facet normal 0.675111 -0.737716 0
    outer loop
      vertex 131.07 91.2359 70
      vertex 132.564 92.6032 0
      vertex 132.564 92.6032 70
    endloop
  endfacet
  facet normal 0.675111 -0.737716 0
    outer loop
      vertex 131.07 91.2359 0
      vertex 132.564 92.6032 0
      vertex 131.07 91.2359 70
    endloop
  endfacet
  facet normal 0.798915 -0.601444 0
    outer loop
      vertex 132.564 92.6032 70
      vertex 133.782 94.2212 0
      vertex 133.782 94.2212 70
    endloop
  endfacet
  facet normal 0.798915 -0.601444 0
    outer loop
      vertex 132.564 92.6032 0
      vertex 133.782 94.2212 0
      vertex 132.564 92.6032 70
    endloop
  endfacet
  facet normal 0.895638 -0.444785 0
    outer loop
      vertex 133.782 94.2212 0
      vertex 134.683 96.0351 0
      vertex 133.782 94.2212 70
    endloop
  endfacet
  facet normal 0.895638 -0.444785 0
    outer loop
      vertex 133.782 94.2212 70
      vertex 134.683 96.0351 0
      vertex 134.683 96.0351 70
    endloop
  endfacet
  facet normal 0.962 -0.273048 0
    outer loop
      vertex 134.683 96.0351 70
      vertex 134.683 96.0351 0
      vertex 135.236 97.9834 70
    endloop
  endfacet
  facet normal 0.962 -0.273048 0
    outer loop
      vertex 134.683 96.0351 0
      vertex 135.236 97.9834 0
      vertex 135.236 97.9834 70
    endloop
  endfacet
  facet normal 0.995754 -0.0920562 0
    outer loop
      vertex 135.236 97.9834 0
      vertex 135.422 100 0
      vertex 135.236 97.9834 70
    endloop
  endfacet
  facet normal 0.995754 -0.0920562 0
    outer loop
      vertex 135.236 97.9834 70
      vertex 135.422 100 0
      vertex 135.422 100 70
    endloop
  endfacet
  facet normal 0.995754 0.0920562 0
    outer loop
      vertex 135.422 100 0
      vertex 135.236 102.017 0
      vertex 135.422 100 70
    endloop
  endfacet
  facet normal 0.995754 0.0920562 0
    outer loop
      vertex 135.422 100 70
      vertex 135.236 102.017 0
      vertex 135.236 102.017 70
    endloop
  endfacet
  facet normal 0.962 0.273048 0
    outer loop
      vertex 135.236 102.017 0
      vertex 134.683 103.965 0
      vertex 135.236 102.017 70
    endloop
  endfacet
  facet normal 0.962 0.273048 0
    outer loop
      vertex 135.236 102.017 70
      vertex 134.683 103.965 0
      vertex 134.683 103.965 70
    endloop
  endfacet
  facet normal 0.895638 0.444785 0
    outer loop
      vertex 134.683 103.965 0
      vertex 133.782 105.779 0
      vertex 134.683 103.965 70
    endloop
  endfacet
  facet normal 0.895638 0.444785 0
    outer loop
      vertex 134.683 103.965 70
      vertex 133.782 105.779 0
      vertex 133.782 105.779 70
    endloop
  endfacet
  facet normal 0.798915 0.601444 0
    outer loop
      vertex 133.782 105.779 0
      vertex 132.564 107.397 0
      vertex 133.782 105.779 70
    endloop
  endfacet
  facet normal 0.798915 0.601444 0
    outer loop
      vertex 133.782 105.779 70
      vertex 132.564 107.397 0
      vertex 132.564 107.397 70
    endloop
  endfacet
  facet normal 0.675111 0.737716 0
    outer loop
      vertex 132.564 107.397 0
      vertex 131.07 108.764 0
      vertex 132.564 107.397 70
    endloop
  endfacet
  facet normal 0.675111 0.737716 0
    outer loop
      vertex 132.564 107.397 70
      vertex 131.07 108.764 0
      vertex 131.07 108.764 70
    endloop
  endfacet
  facet normal 0.528423 0.848981 0
    outer loop
      vertex 131.07 108.764 0
      vertex 129.351 109.834 0
      vertex 131.07 108.764 70
    endloop
  endfacet
  facet normal 0.528423 0.848981 0
    outer loop
      vertex 131.07 108.764 70
      vertex 129.351 109.834 0
      vertex 129.351 109.834 70
    endloop
  endfacet
  facet normal 0 1 0
    outer loop
      vertex 124.422 95.9 0
      vertex 117.805 95.9 0
      vertex 124.422 95.9 70
    endloop
  endfacet
  facet normal 0 1 0
    outer loop
      vertex 124.422 95.9 70
      vertex 117.805 95.9 0
      vertex 117.805 95.9 70
    endloop
  endfacet
  facet normal -0.80864 -0.588304 0
    outer loop
      vertex 116.334 92.5444 0
      vertex 116.334 92.5444 70
      vertex 116.063 92.9181 0
    endloop
  endfacet
  facet normal -0.80864 -0.588304 0
    outer loop
      vertex 116.334 92.5444 70
      vertex 116.063 92.9181 70
      vertex 116.063 92.9181 0
    endloop
  endfacet
  facet normal -0.922068 -0.387028 0
    outer loop
      vertex 116.063 92.9181 0
      vertex 115.884 93.3442 70
      vertex 115.884 93.3442 0
    endloop
  endfacet
  facet normal -0.922068 -0.387028 0
    outer loop
      vertex 116.063 92.9181 70
      vertex 115.884 93.3442 70
      vertex 116.063 92.9181 0
    endloop
  endfacet
  facet normal -0.986278 -0.165094 0
    outer loop
      vertex 115.884 93.3442 0
      vertex 115.807 93.7999 70
      vertex 115.807 93.7999 0
    endloop
  endfacet
  facet normal -0.986278 -0.165094 0
    outer loop
      vertex 115.884 93.3442 70
      vertex 115.807 93.7999 70
      vertex 115.884 93.3442 0
    endloop
  endfacet
  facet normal -0.997843 0.0656528 0
    outer loop
      vertex 115.807 93.7999 0
      vertex 115.838 94.261 70
      vertex 115.838 94.261 0
    endloop
  endfacet
  facet normal -0.997843 0.0656528 0
    outer loop
      vertex 115.807 93.7999 70
      vertex 115.838 94.261 70
      vertex 115.807 93.7999 0
    endloop
  endfacet
  facet normal -0.956145 0.292895 0
    outer loop
      vertex 115.838 94.261 0
      vertex 115.973 94.7028 70
      vertex 115.973 94.7028 0
    endloop
  endfacet
  facet normal -0.956145 0.292895 0
    outer loop
      vertex 115.838 94.261 70
      vertex 115.973 94.7028 70
      vertex 115.838 94.261 0
    endloop
  endfacet
  facet normal -0.86341 0.504503 0
    outer loop
      vertex 115.973 94.7028 0
      vertex 116.206 95.1017 70
      vertex 116.206 95.1017 0
    endloop
  endfacet
  facet normal -0.86341 0.504503 0
    outer loop
      vertex 115.973 94.7028 70
      vertex 116.206 95.1017 70
      vertex 115.973 94.7028 0
    endloop
  endfacet
  facet normal -0.724588 0.689183 0
    outer loop
      vertex 116.206 95.1017 0
      vertex 116.525 95.4365 70
      vertex 116.525 95.4365 0
    endloop
  endfacet
  facet normal -0.724588 0.689183 0
    outer loop
      vertex 116.206 95.1017 70
      vertex 116.525 95.4365 70
      vertex 116.206 95.1017 0
    endloop
  endfacet
  facet normal -0.54709 0.837074 0
    outer loop
      vertex 116.525 95.4365 0
      vertex 116.911 95.6893 70
      vertex 116.911 95.6893 0
    endloop
  endfacet
  facet normal -0.54709 0.837074 0
    outer loop
      vertex 116.525 95.4365 70
      vertex 116.911 95.6893 70
      vertex 116.525 95.4365 0
    endloop
  endfacet
  facet normal -0.340388 0.940285 0
    outer loop
      vertex 116.911 95.6893 0
      vertex 117.346 95.8466 70
      vertex 117.346 95.8466 0
    endloop
  endfacet
  facet normal -0.340388 0.940285 0
    outer loop
      vertex 116.911 95.6893 70
      vertex 117.346 95.8466 70
      vertex 116.911 95.6893 0
    endloop
  endfacet
  facet normal -0.115518 0.993305 0
    outer loop
      vertex 117.346 95.8466 0
      vertex 117.805 95.9 70
      vertex 117.805 95.9 0
    endloop
  endfacet
  facet normal -0.115518 0.993305 0
    outer loop
      vertex 117.346 95.8466 70
      vertex 117.805 95.9 70
      vertex 117.346 95.8466 0
    endloop
  endfacet
endsolid x_axis_level1.stl
